<?xml version="1.0" encoding="utf-8"?>
<!-- Generator: Adobe Illustrator 24.1.2, SVG Export Plug-In . SVG Version: 6.00 Build 0)  -->
<svg version="1.1" id="Calque_1" xmlns="http://www.w3.org/2000/svg" xmlns:xlink="http://www.w3.org/1999/xlink" x="0px" y="0px"
	 viewBox="0 0 595.3 841.9" style="enable-background:new 0 0 595.3 841.9;" xml:space="preserve">
<style type="text/css">
	.st0{fill:#FFFFFF;}
</style>
<g>
	<g>
		<path class="st0" d="M701,1239.9c-254.7,0-509.3,0-764,0c0-533.3,0-1066.7,0-1600c254.7,0,509.3,0,764,0
			C701,173.2,701,706.6,701,1239.9z M154.5,442.1c-4.8,11-9.5,21.5-13.9,32.1c-3.3,8.2-6.6,16.4-9,24.8c-2.7,9.7-5.3,19.6-6.5,29.6
			c-2.3,19.5,2.8,38.3,7.1,57.2c2.3,10.1,8,17.5,16.3,22.9c16.6,10.8,33.1,21.6,50.2,31.6c13.6,8,27.9,14.7,41.9,22
			c11.5,6,23.9,10.6,31.1,22.5c2.4,4,4.2,8.3,6.4,12.6c2.5-4.9,2.1-9.9,0-14.7c-3.6-8.1-7.2-16.1-11.2-23.9
			c-6.8-13.1-16.9-22.9-30-29.7c-17.3-9-34-18.9-48.4-32.3c-11-10.3-20.3-22.3-26.1-36.2c-8.6-20.6-8.6-42.1-3.4-63.7
			c3.2-13.2,8.3-25.2,17.7-35.2c2.5-2.7,5.1-5,8.9-1.8c7.5,6.2,14.3,13,18.9,21.7c9.4,17.7,3.6,43.7-12.3,56.4
			c-0.5,0.4-0.7,1-1.2,1.6c5.6,1.8,11.3,2.8,16.1,5.4c21.4,11.3,38.9,27.4,53.8,46c15.5,19.3,30.5,39.2,37.8,63.9
			c0.5-0.6,1.3-1,1.5-1.7c4.8-12.5,9-25.1,9.1-38.6c0.2-24.2-6.5-47-13.8-69.7c-9.5-29.6-25.7-55-48.2-76.3
			c-9.6-9.1-9.7-12.6,1.1-20.3c9.3-6.7,18.9-13,28.3-19.7c1.1-0.8,2.1-3,1.7-4.1c-6.2-17.8-6.5-36.1-5.6-54.6c0.1-1.9,0-3.8,0-6.8
			c-8.7,3.6-15.2-0.5-21.7-3.6c-6.7-3.2-13.1-7.2-19.7-10.7c-16.1-8.7-20.6-22.9-19.3-40c0.1-1.7,0.3-3.4,0.5-5.2
			c-1.8,1.1-2.6,2.4-3.3,3.8c-4.8,8.9-9.6,17.9-14.3,26.8c-8.8,16.6-17.7,33.1-26.6,49.7c-1.4,2.6-0.5,4,2,5
			c7.7,3.2,15.4,6.2,22.9,9.8c10.7,5.2,23.1,7.3,32,15.8c4.4,4.2,11.1,7.7,10.2,14.9c-1,7.9-3.5,15.7-5.8,24.9
			c-17.7-9.6-34.4-18.3-50.8-27.7c-9.6-5.5-15.6-14.6-18.6-25c-1.7-5.7-2.4-12.4-1.1-18c2-8.3,5.4-16.4,9.5-23.9
			c10.6-19.4,21.9-38.4,32.9-57.5c1-1.7,2.1-3.4,3.2-5.1c-18.2,10.3-38.2,12.5-57.8,15.4c-19.6,2.9-39.4,5.1-59.4-3.2
			c1.5,6.1,2.5,10.9,4,15.7c4.6,15.1,9.6,30.1,14,45.3c2.6,9.1,2.1,18.2-2.5,26.7c-4.7,8.6-9.9,16.9-14.7,25.4
			c-1.5,2.7-2.4,5.7-4.1,9.9C110.9,422,133.4,427.8,154.5,442.1z M285.4,369.1c15.9-18.3,35.8-27.4,59.7-29.7c-2.2-2.7-4-4.8-5.7-7
			c-8.2-11.2-16.9-22.3-12.5-38.2c-14.7,0-29.3,0-44.6,0c10,9.1,9.4,21.3,7.7,34c6.9-3.7,12.9-6.9,18.9-10.2
			c0.4,0.6,0.8,1.2,1.2,1.7c-8,7.1-15.9,14.2-23.3,20.8c-3.7-18-7.2-35.6-10.8-53.1c15.3-1.7,29.5-3.2,43.7-4.7
			c3.9-0.4,6.9,0.1,10,3.5c10.2,11.1,20.8,21.9,31.7,32.4c5.6,5.4,12,9.8,18.6,15c-1.9,1.2-3.3,2.4-4.9,3.1
			c-19.3,8.2-38.7,16.1-57.9,24.6c-9.5,4.2-18.8,9.2-27.9,14.2c-5,2.8-7.5,7.1-7.4,13.5c0.5,25.9,3,51.4,8.2,76.8
			c5.3,25.8,14.8,50,25.9,73.8c0.6,1.3,1.7,2.5,3,4.3c0.7-1.8,1.1-2.5,1.2-3.3c2.7-14.8,11.7-26.4,22-36
			c10.6-9.9,23.1-17.9,35.4-25.7c6.8-4.4,14.1-9,23-8.6c3.1,0.1,3-2.2,2.3-4.2c-1-3.2-2.2-6.3-3.5-9.3c-6.1-13.9-7.8-28.6-7.1-43.4
			c1-20.8,9.8-39.3,19.5-57.2c5.2-9.6,11.7-18.5,18.4-27.2c5.8-7.6,12.3-14.7,19.1-21.5c2.7-2.7,6.9-4.1,10.5-6
			c-0.1-0.4-0.2-0.8-0.3-1.2c-1.7-0.1-3.4-0.3-5.1-0.4c-4.3-0.2-8.7,0-12.9-0.7c-18.4-3.2-36-8.2-52.8-17.1
			c-15.6-8.3-30-17.8-42.1-30.6c-10.8-11.4-16.7-24.8-13.8-41c0.2-1,0-2.2,0-3.2c-0.4-0.2-0.7-0.5-1.1-0.7c-4.1,4.6-8,9.4-12.3,13.9
			c-12.7,13.4-25.3,26.8-38.3,39.8c-2.3,2.3-6.4,3.4-9.8,3.7c-13,1.1-22.5-5.7-30.9-14.5c-2.8-3-4.9-6.6-7.3-10
			c-0.9,2.3-1.1,4.1-0.9,5.9c2.3,22.7-1.2,44.4-11.7,64.8c-3.1,6.1-3.1,6.4,2.9,9.5c16.8,8.8,31.1,20.9,45.1,33.5
			C274.4,358.3,279.9,363.8,285.4,369.1z M311.1,588.6c0.8,0.5,1.7,1,2.5,1.5c2.5-3.3,5.1-6.5,7.4-10c8.7-13.5,18.9-25.4,31.8-35.2
			c21.4-16.3,44-31,69.2-40.3c19.7-7.3,40.3-12.4,60.8-17.6c11-2.8,22.5-3.8,34.7-5.7c-1.6-7-2.7-14.4-5.2-21.4
			c-7.1-20.1-19.4-37.4-32-54.3c-10.9-14.5-19.9-29.9-25.7-47.1c-2.4-7.3-2.6-14.4,0-21.5c2.4-6.4,5.1-12.7,7.7-19
			c-5.1,3.3-9.4,7.4-14,11.1c-16.7,13.3-29.2,29.7-39.4,48.4c-4.7,8.6-5.4,15.1,1,23.7c12.5,17,23.5,35.1,38.6,50.1
			c1.7,1.7,2.9,3.8,4.7,6.1c-6.2,2.5-11.9,4.3-17.1,7.1c-16.2,8.9-32.3,17.8-48.1,27.4c-9.2,5.6-18.4,11.7-26.1,19.1
			c-16.8,16-30.6,34.7-41.2,55.4C317,573.6,314.3,581.2,311.1,588.6z M276.7,715.2c0.7,0.3,1.4,0.5,2.2,0.8c1.4-2.3,2.5-4.9,4.3-7
			c6.1-7,11.4-15.3,18.9-20.2c17-11,35.1-20.3,52.7-30.3c15.2-8.7,29.4-18.6,41.8-31.3c8.2-8.5,13.9-17.9,14.5-29.7
			c1.2-21,4.9-41.3,14.1-60.3c3.5-7.2,7-14.4,10.9-22.6c-5.7,2.1-11.5,3.8-16.8,6.4c-28.3,14.2-55.1,30.9-80.7,49.5
			c-2,1.4-3.9,4.4-4,6.8c-0.5,12.7-0.4,25.5-0.4,38.3c0,9.8,0.2,19.9-6.3,28.1c-4.9,6.1-10.1,11.9-15.9,17.1
			c-12.9,11.7-25.7,23.3-31,40.7C279.5,706,278.1,710.6,276.7,715.2z"/>
		<path d="M154.5,442.1c-21.2-14.3-43.6-20.2-70.2-9.8c1.7-4.1,2.6-7.2,4.1-9.9c4.8-8.5,10-16.9,14.7-25.4
			c4.6-8.4,5.2-17.6,2.5-26.7c-4.4-15.2-9.4-30.2-14-45.3c-1.4-4.7-2.5-9.6-4-15.7c20,8.3,39.8,6.1,59.4,3.2
			c19.6-2.9,39.6-5.2,57.8-15.4c-1.1,1.7-2.2,3.3-3.2,5.1c-11,19.1-22.3,38.1-32.9,57.5c-4.1,7.5-7.6,15.6-9.5,23.9
			c-1.3,5.6-0.6,12.3,1.1,18c3,10.4,9,19.5,18.6,25c16.4,9.4,33.2,18.1,50.8,27.7c2.2-9.2,4.8-17,5.8-24.9
			c0.9-7.2-5.8-10.7-10.2-14.9c-9-8.5-21.3-10.6-32-15.8c-7.4-3.6-15.2-6.6-22.9-9.8c-2.5-1-3.4-2.3-2-5
			c8.9-16.5,17.7-33.1,26.6-49.7c4.8-8.9,9.5-17.9,14.3-26.8c0.7-1.4,1.5-2.7,3.3-3.8c-0.2,1.7-0.3,3.4-0.5,5.2
			c-1.3,17.1,3.2,31.3,19.3,40c6.6,3.5,12.9,7.5,19.7,10.7c6.5,3.1,13,7.2,21.7,3.6c0,3,0.1,4.9,0,6.8c-0.9,18.5-0.6,36.8,5.6,54.6
			c0.4,1.1-0.6,3.4-1.7,4.1c-9.3,6.7-18.9,13-28.3,19.7c-10.8,7.7-10.7,11.1-1.1,20.3c22.5,21.4,38.7,46.8,48.2,76.3
			c7.3,22.7,14,45.6,13.8,69.7c-0.1,13.6-4.3,26.2-9.1,38.6c-0.3,0.7-1,1.1-1.5,1.7c-7.2-24.7-22.2-44.6-37.8-63.9
			c-15-18.6-32.5-34.8-53.8-46c-4.9-2.6-10.6-3.6-16.1-5.4c0.4-0.6,0.7-1.2,1.2-1.6c15.8-12.7,21.7-38.7,12.3-56.4
			c-4.6-8.6-11.4-15.5-18.9-21.7c-3.8-3.2-6.4-0.8-8.9,1.8c-9.4,10-14.5,22-17.7,35.2c-5.2,21.7-5.3,43.1,3.4,63.7
			c5.8,13.8,15.1,25.8,26.1,36.2c14.3,13.4,31.1,23.3,48.4,32.3c13.1,6.8,23.2,16.6,30,29.7c4.1,7.8,7.7,15.9,11.2,23.9
			c2.1,4.8,2.6,9.8,0,14.7c-2.2-4.3-4-8.6-6.4-12.6c-7.2-11.8-19.6-16.5-31.1-22.5c-14-7.3-28.3-14.1-41.9-22
			c-17-10-33.6-20.8-50.2-31.6c-8.3-5.4-14-12.9-16.3-22.9c-4.3-18.8-9.3-37.7-7.1-57.2c1.2-10,3.7-19.9,6.5-29.6
			c2.4-8.5,5.7-16.7,9-24.8C145,463.6,149.7,453.2,154.5,442.1z"/>
		<path d="M285.4,369.1c-5.6-5.3-11.1-10.8-16.8-15.9c-14-12.6-28.3-24.8-45.1-33.5c-6.1-3.1-6.1-3.4-2.9-9.5
			c10.5-20.4,14-42.1,11.7-64.8c-0.2-1.8,0-3.6,0.9-5.9c2.4,3.3,4.5,7,7.3,10c8.4,8.8,17.9,15.6,30.9,14.5c3.4-0.3,7.6-1.5,9.8-3.7
			c13-13,25.7-26.4,38.3-39.8c4.2-4.5,8.2-9.2,12.3-13.9c0.4,0.2,0.7,0.5,1.1,0.7c0,1.1,0.2,2.2,0,3.2c-2.8,16.2,3,29.5,13.8,41
			c12.1,12.8,26.5,22.3,42.1,30.6c16.7,9,34.4,13.9,52.8,17.1c4.2,0.7,8.6,0.5,12.9,0.7c1.7,0.1,3.4,0.3,5.1,0.4
			c0.1,0.4,0.2,0.8,0.3,1.2c-3.5,2-7.7,3.3-10.5,6c-6.8,6.8-13.3,13.9-19.1,21.5c-6.6,8.7-13.2,17.6-18.4,27.2
			c-9.7,17.9-18.5,36.4-19.5,57.2c-0.7,14.8,1,29.6,7.1,43.4c1.3,3,2.5,6.1,3.5,9.3c0.6,2,0.8,4.4-2.3,4.2c-8.9-0.4-16.2,4.2-23,8.6
			c-12.3,7.8-24.8,15.9-35.4,25.7c-10.4,9.6-19.3,21.2-22,36c-0.1,0.8-0.6,1.5-1.2,3.3c-1.3-1.8-2.4-2.9-3-4.3
			c-11.1-23.7-20.7-47.9-25.9-73.8c-5.2-25.4-7.7-50.9-8.2-76.8c-0.1-6.4,2.4-10.7,7.4-13.5c9.1-5.1,18.3-10,27.9-14.2
			c19.2-8.5,38.6-16.4,57.9-24.6c1.6-0.7,3-1.9,4.9-3.1c-6.5-5.2-13-9.6-18.6-15c-10.9-10.5-21.5-21.3-31.7-32.4
			c-3.1-3.4-6.2-3.9-10-3.5c-14.2,1.5-28.4,3.1-43.7,4.7c3.5,17.5,7.1,35,10.8,53.1c7.4-6.6,15.4-13.7,23.3-20.8
			c-0.4-0.6-0.8-1.2-1.2-1.7c-6,3.2-12,6.5-18.9,10.2c1.7-12.7,2.3-24.8-7.7-34c15.3,0,29.9,0,44.6,0c-4.4,15.9,4.3,27,12.5,38.2
			c1.6,2.2,3.5,4.3,5.7,7C321.2,341.7,301.3,350.8,285.4,369.1z"/>
		<path d="M311.1,588.6c3.1-7.4,5.9-15,9.5-22.1c10.6-20.7,24.3-39.4,41.2-55.4c7.8-7.4,17-13.5,26.1-19.1
			c15.7-9.6,31.9-18.5,48.1-27.4c5.2-2.8,10.9-4.6,17.1-7.1c-1.7-2.3-3-4.4-4.7-6.1c-15.1-15-26.1-33.2-38.6-50.1
			c-6.4-8.6-5.7-15.1-1-23.7c10.2-18.7,22.7-35.1,39.4-48.4c4.6-3.7,8.9-7.8,14-11.1c-2.6,6.3-5.3,12.6-7.7,19
			c-2.7,7.1-2.5,14.2,0,21.5c5.8,17.2,14.8,32.6,25.7,47.1c12.7,16.9,24.9,34.2,32,54.3c2.5,7,3.5,14.4,5.2,21.4
			c-12.2,1.9-23.7,2.9-34.7,5.7c-20.4,5.2-41,10.3-60.8,17.6c-25.2,9.3-47.8,24-69.2,40.3c-12.8,9.8-23.1,21.7-31.8,35.2
			c-2.2,3.5-4.9,6.7-7.4,10C312.8,589.6,312,589.1,311.1,588.6z"/>
		<path d="M276.7,715.2c1.4-4.6,2.8-9.2,4.2-13.8c5.3-17.4,18.1-29,31-40.7c5.7-5.2,11-11.1,15.9-17.1c6.6-8.2,6.3-18.2,6.3-28.1
			c0-12.8-0.1-25.5,0.4-38.3c0.1-2.3,2-5.4,4-6.8c25.6-18.6,52.4-35.3,80.7-49.5c5.3-2.7,11.1-4.3,16.8-6.4
			c-4,8.2-7.4,15.4-10.9,22.6c-9.3,19-13,39.3-14.1,60.3c-0.7,11.8-6.3,21.3-14.5,29.7c-12.3,12.7-26.6,22.6-41.8,31.3
			c-17.6,10.1-35.7,19.3-52.7,30.3c-7.5,4.9-12.8,13.3-18.9,20.2c-1.8,2-2.9,4.6-4.3,7C278.1,715.7,277.4,715.4,276.7,715.2z"/>
	</g>
</g>
</svg>
